<svg width="1317" height="243" viewBox="0 0 1317 243" fill="none" xmlns="http://www.w3.org/2000/svg">
<g filter="url(#filter0_f)">
<path d="M22.5054 99.5905C22.5054 99.5905 39.9996 15.0186 115 25.3678C190 35.717 251.183 99.5905 251.183 99.5905C191.804 120.151 233.867 113.556 251.183 106.573C344.095 42.9678 499.987 58.7794 477.359 119.764C477.359 119.764 482.749 102.024 496.874 43.7265C511 -14.5708 639.985 106.573 639.985 106.573C639.985 106.573 686 43.7265 790.603 65.0634C895.205 86.4004 848.648 106.573 848.648 106.573C880.839 76.4431 899.5 13.7617 957.732 15.0186C1015.96 16.2755 1025.79 54.5889 1034.79 65.0634C1042 73.443 1096 -5.01282 1134.37 43.7265C1172.74 92.4658 1226.94 78.2535 1226.94 78.2535L1286.49 56.5287L1302 43.7265V228L22.5054 226.843V99.5905Z" fill="#9EB2FB"/>
<path d="M15 222.873L22.5054 226.843M22.5054 226.843L1302 228V43.7265L1286.49 56.5287L1226.94 78.2535C1226.94 78.2535 1172.74 92.4658 1134.37 43.7265C1096 -5.01282 1042 73.443 1034.79 65.0634C1025.79 54.5889 1015.96 16.2755 957.732 15.0186C899.5 13.7617 880.839 76.4431 848.648 106.573C848.648 106.573 895.205 86.4003 790.603 65.0634C686 43.7265 639.985 106.573 639.985 106.573C639.985 106.573 511 -14.5708 496.874 43.7265C482.749 102.024 477.359 119.764 477.359 119.764C499.987 58.7794 344.095 42.9678 251.183 106.573C233.867 113.556 191.804 120.151 251.183 99.5905C251.183 99.5905 190 35.717 115 25.3678C39.9996 15.0186 22.5054 99.5905 22.5054 99.5905V226.843Z" stroke="#A9D5F5"/>
</g>
<defs>
<filter id="filter0_f" x="0.766235" y="0.5" width="1315.73" height="242" filterUnits="userSpaceOnUse" color-interpolation-filters="sRGB">
<feFlood flood-opacity="0" result="BackgroundImageFix"/>
<feBlend mode="normal" in="SourceGraphic" in2="BackgroundImageFix" result="shape"/>
<feGaussianBlur stdDeviation="7" result="effect1_foregroundBlur"/>
</filter>
</defs>
</svg>
